<mxfile host="app.diagrams.net" modified="2022-10-27T15:41:10.583Z" agent="5.0 (Windows NT 10.0; Win64; x64) AppleWebKit/537.36 (KHTML, like Gecko) Chrome/87.0.4280.88 Safari/537.36" etag="Y99qofj5abTeaFTS21FY" version="20.4.1" type="github">
  <diagram id="ntSK9yYpymZCnbc-YsIi" name="第 1 页">
    <mxGraphModel dx="1422" dy="800" grid="1" gridSize="10" guides="1" tooltips="1" connect="1" arrows="1" fold="1" page="1" pageScale="1" pageWidth="827" pageHeight="1169" math="0" shadow="0">
      <root>
        <mxCell id="0" />
        <mxCell id="1" parent="0" />
        <mxCell id="SQLN1OdfhrKfak8XEMtt-34" style="edgeStyle=none;rounded=0;orthogonalLoop=1;jettySize=auto;html=1;entryX=0;entryY=0.5;entryDx=0;entryDy=0;endArrow=block;endFill=0;dashed=1;" edge="1" parent="1" source="SQLN1OdfhrKfak8XEMtt-1" target="SQLN1OdfhrKfak8XEMtt-2">
          <mxGeometry relative="1" as="geometry">
            <Array as="points">
              <mxPoint x="80" y="120" />
            </Array>
          </mxGeometry>
        </mxCell>
        <mxCell id="SQLN1OdfhrKfak8XEMtt-1" value="Actor" style="shape=umlActor;verticalLabelPosition=bottom;verticalAlign=top;html=1;outlineConnect=0;" vertex="1" parent="1">
          <mxGeometry x="20" y="90" width="50" height="70" as="geometry" />
        </mxCell>
        <mxCell id="SQLN1OdfhrKfak8XEMtt-27" style="edgeStyle=none;rounded=0;orthogonalLoop=1;jettySize=auto;html=1;entryX=0;entryY=0.5;entryDx=0;entryDy=0;dashed=1;endArrow=block;endFill=0;" edge="1" parent="1" source="SQLN1OdfhrKfak8XEMtt-2" target="SQLN1OdfhrKfak8XEMtt-6">
          <mxGeometry relative="1" as="geometry" />
        </mxCell>
        <mxCell id="SQLN1OdfhrKfak8XEMtt-31" style="edgeStyle=none;rounded=0;orthogonalLoop=1;jettySize=auto;html=1;exitX=0.5;exitY=1;exitDx=0;exitDy=0;entryX=0.5;entryY=0;entryDx=0;entryDy=0;endArrow=block;endFill=0;" edge="1" parent="1" source="SQLN1OdfhrKfak8XEMtt-2" target="SQLN1OdfhrKfak8XEMtt-4">
          <mxGeometry relative="1" as="geometry" />
        </mxCell>
        <mxCell id="SQLN1OdfhrKfak8XEMtt-2" value="SqlSessionFactory" style="rounded=1;whiteSpace=wrap;html=1;" vertex="1" parent="1">
          <mxGeometry x="220" y="80" width="140" height="80" as="geometry" />
        </mxCell>
        <mxCell id="SQLN1OdfhrKfak8XEMtt-28" style="edgeStyle=none;rounded=0;orthogonalLoop=1;jettySize=auto;html=1;entryX=0;entryY=0.5;entryDx=0;entryDy=0;dashed=1;endArrow=block;endFill=0;" edge="1" parent="1" source="SQLN1OdfhrKfak8XEMtt-4" target="SQLN1OdfhrKfak8XEMtt-7">
          <mxGeometry relative="1" as="geometry" />
        </mxCell>
        <mxCell id="SQLN1OdfhrKfak8XEMtt-32" style="edgeStyle=none;rounded=0;orthogonalLoop=1;jettySize=auto;html=1;exitX=0.5;exitY=1;exitDx=0;exitDy=0;entryX=0.5;entryY=0;entryDx=0;entryDy=0;endArrow=block;endFill=0;" edge="1" parent="1" source="SQLN1OdfhrKfak8XEMtt-4" target="SQLN1OdfhrKfak8XEMtt-5">
          <mxGeometry relative="1" as="geometry" />
        </mxCell>
        <mxCell id="SQLN1OdfhrKfak8XEMtt-4" value="SqlSession" style="rounded=1;whiteSpace=wrap;html=1;" vertex="1" parent="1">
          <mxGeometry x="220" y="200" width="140" height="80" as="geometry" />
        </mxCell>
        <mxCell id="SQLN1OdfhrKfak8XEMtt-29" style="edgeStyle=none;rounded=0;orthogonalLoop=1;jettySize=auto;html=1;dashed=1;endArrow=block;endFill=0;" edge="1" parent="1" source="SQLN1OdfhrKfak8XEMtt-5" target="SQLN1OdfhrKfak8XEMtt-8">
          <mxGeometry relative="1" as="geometry" />
        </mxCell>
        <mxCell id="SQLN1OdfhrKfak8XEMtt-5" value="MapperRegistry" style="rounded=1;whiteSpace=wrap;html=1;" vertex="1" parent="1">
          <mxGeometry x="220" y="320" width="140" height="80" as="geometry" />
        </mxCell>
        <mxCell id="SQLN1OdfhrKfak8XEMtt-6" value="openSession()" style="rounded=1;whiteSpace=wrap;html=1;" vertex="1" parent="1">
          <mxGeometry x="520" y="80" width="250" height="80" as="geometry" />
        </mxCell>
        <mxCell id="SQLN1OdfhrKfak8XEMtt-7" value="&amp;lt;T&amp;gt; T selectOne(String statement);&lt;br&gt;&amp;lt;T&amp;gt; T getMapper(Class&amp;lt;T&amp;gt; type);" style="rounded=1;whiteSpace=wrap;html=1;" vertex="1" parent="1">
          <mxGeometry x="520" y="200" width="250" height="80" as="geometry" />
        </mxCell>
        <mxCell id="SQLN1OdfhrKfak8XEMtt-8" value="Map&amp;lt;Class&amp;lt;?&amp;gt;,MapperProxyFactory&amp;lt;?&amp;gt;&amp;gt;" style="rounded=1;whiteSpace=wrap;html=1;" vertex="1" parent="1">
          <mxGeometry x="520" y="320" width="250" height="80" as="geometry" />
        </mxCell>
        <mxCell id="SQLN1OdfhrKfak8XEMtt-9" value="" style="whiteSpace=wrap;html=1;aspect=fixed;" vertex="1" parent="1">
          <mxGeometry x="180" y="500" width="220" height="220" as="geometry" />
        </mxCell>
        <mxCell id="SQLN1OdfhrKfak8XEMtt-10" value="IDaoX" style="rounded=1;whiteSpace=wrap;html=1;" vertex="1" parent="1">
          <mxGeometry x="230" y="510" width="120" height="60" as="geometry" />
        </mxCell>
        <mxCell id="SQLN1OdfhrKfak8XEMtt-11" value="IDaoY" style="rounded=1;whiteSpace=wrap;html=1;" vertex="1" parent="1">
          <mxGeometry x="230" y="585" width="120" height="60" as="geometry" />
        </mxCell>
        <mxCell id="SQLN1OdfhrKfak8XEMtt-12" value="IDaoY" style="rounded=1;whiteSpace=wrap;html=1;" vertex="1" parent="1">
          <mxGeometry x="230" y="650" width="120" height="60" as="geometry" />
        </mxCell>
        <mxCell id="SQLN1OdfhrKfak8XEMtt-15" value="" style="shape=flexArrow;endArrow=classic;html=1;rounded=0;entryX=0.5;entryY=0;entryDx=0;entryDy=0;" edge="1" parent="1" source="SQLN1OdfhrKfak8XEMtt-5" target="SQLN1OdfhrKfak8XEMtt-9">
          <mxGeometry width="50" height="50" relative="1" as="geometry">
            <mxPoint x="290" y="450" as="sourcePoint" />
            <mxPoint x="290" y="470.71067811865476" as="targetPoint" />
          </mxGeometry>
        </mxCell>
        <mxCell id="SQLN1OdfhrKfak8XEMtt-24" style="edgeStyle=none;rounded=0;orthogonalLoop=1;jettySize=auto;html=1;entryX=0.452;entryY=1.038;entryDx=0;entryDy=0;entryPerimeter=0;endArrow=block;endFill=0;dashed=1;" edge="1" parent="1" source="SQLN1OdfhrKfak8XEMtt-16" target="SQLN1OdfhrKfak8XEMtt-8">
          <mxGeometry relative="1" as="geometry" />
        </mxCell>
        <mxCell id="SQLN1OdfhrKfak8XEMtt-16" value="" style="whiteSpace=wrap;html=1;aspect=fixed;" vertex="1" parent="1">
          <mxGeometry x="480" y="525" width="310" height="310" as="geometry" />
        </mxCell>
        <mxCell id="SQLN1OdfhrKfak8XEMtt-19" style="edgeStyle=orthogonalEdgeStyle;rounded=0;orthogonalLoop=1;jettySize=auto;html=1;endArrow=block;endFill=0;" edge="1" parent="1" source="SQLN1OdfhrKfak8XEMtt-17" target="SQLN1OdfhrKfak8XEMtt-18">
          <mxGeometry relative="1" as="geometry" />
        </mxCell>
        <mxCell id="SQLN1OdfhrKfak8XEMtt-17" value="MapperProxyFactory" style="rounded=1;whiteSpace=wrap;html=1;" vertex="1" parent="1">
          <mxGeometry x="500" y="545" width="140" height="50" as="geometry" />
        </mxCell>
        <mxCell id="SQLN1OdfhrKfak8XEMtt-23" style="edgeStyle=none;rounded=0;orthogonalLoop=1;jettySize=auto;html=1;exitX=0.5;exitY=1;exitDx=0;exitDy=0;endArrow=block;endFill=0;" edge="1" parent="1" source="SQLN1OdfhrKfak8XEMtt-18" target="SQLN1OdfhrKfak8XEMtt-20">
          <mxGeometry relative="1" as="geometry" />
        </mxCell>
        <mxCell id="SQLN1OdfhrKfak8XEMtt-18" value="MapperProxy" style="rounded=1;whiteSpace=wrap;html=1;" vertex="1" parent="1">
          <mxGeometry x="670" y="545" width="110" height="50" as="geometry" />
        </mxCell>
        <mxCell id="SQLN1OdfhrKfak8XEMtt-20" value="包装Mapper操作" style="rounded=0;whiteSpace=wrap;html=1;dashed=1;" vertex="1" parent="1">
          <mxGeometry x="530" y="675" width="190" height="100" as="geometry" />
        </mxCell>
        <mxCell id="SQLN1OdfhrKfak8XEMtt-25" value="缓存到Map中" style="text;html=1;align=center;verticalAlign=middle;resizable=0;points=[];autosize=1;strokeColor=none;fillColor=none;" vertex="1" parent="1">
          <mxGeometry x="640" y="435" width="90" height="30" as="geometry" />
        </mxCell>
        <mxCell id="SQLN1OdfhrKfak8XEMtt-26" value="扫描" style="text;html=1;align=center;verticalAlign=middle;resizable=0;points=[];autosize=1;strokeColor=none;fillColor=none;" vertex="1" parent="1">
          <mxGeometry x="295" y="415" width="50" height="30" as="geometry" />
        </mxCell>
        <mxCell id="SQLN1OdfhrKfak8XEMtt-30" value="get" style="text;html=1;align=center;verticalAlign=middle;resizable=0;points=[];autosize=1;strokeColor=none;fillColor=none;" vertex="1" parent="1">
          <mxGeometry x="400" y="325" width="40" height="30" as="geometry" />
        </mxCell>
        <mxCell id="SQLN1OdfhrKfak8XEMtt-36" value="" style="shape=flexArrow;endArrow=classic;html=1;rounded=0;entryX=-0.013;entryY=0.29;entryDx=0;entryDy=0;entryPerimeter=0;" edge="1" parent="1" target="SQLN1OdfhrKfak8XEMtt-16">
          <mxGeometry width="50" height="50" relative="1" as="geometry">
            <mxPoint x="400" y="615" as="sourcePoint" />
            <mxPoint x="464" y="585" as="targetPoint" />
            <Array as="points">
              <mxPoint x="434" y="615" />
            </Array>
          </mxGeometry>
        </mxCell>
        <mxCell id="SQLN1OdfhrKfak8XEMtt-37" value="注册" style="text;html=1;align=center;verticalAlign=middle;resizable=0;points=[];autosize=1;strokeColor=none;fillColor=none;" vertex="1" parent="1">
          <mxGeometry x="405" y="635" width="50" height="30" as="geometry" />
        </mxCell>
      </root>
    </mxGraphModel>
  </diagram>
</mxfile>
